<mxfile>
    <diagram id="KHE4BR5K0ZHZUxplgghx" name="第 1 页">
        <mxGraphModel dx="246" dy="203" grid="1" gridSize="10" guides="1" tooltips="1" connect="1" arrows="1" fold="1" page="1" pageScale="1" pageWidth="827" pageHeight="1169" math="0" shadow="0">
            <root>
                <mxCell id="0"/>
                <mxCell id="1" parent="0"/>
                <mxCell id="2" value="" style="ellipse;whiteSpace=wrap;html=1;aspect=fixed;strokeWidth=6;strokeColor=#4D4D4D;" vertex="1" parent="1">
                    <mxGeometry x="180" y="140" width="80" height="80" as="geometry"/>
                </mxCell>
                <mxCell id="5" value="" style="endArrow=none;html=1;strokeWidth=6;strokeColor=#4D4D4D;endSize=6;sketch=0;" edge="1" parent="1">
                    <mxGeometry width="50" height="50" relative="1" as="geometry">
                        <mxPoint x="208" y="160" as="sourcePoint"/>
                        <mxPoint x="208" y="200" as="targetPoint"/>
                        <Array as="points">
                            <mxPoint x="238" y="180"/>
                        </Array>
                    </mxGeometry>
                </mxCell>
            </root>
        </mxGraphModel>
    </diagram>
</mxfile>